PathFileType	4	(X/Y/Z)	C:\Git\research_data\torsion_deformities_healthy_kinematics\simulations\P03\pre\Static01\markers.trc
DataRate	CameraRate	NumFrames	NumMarkers	Units	OrigDataRate	OrigDataStartFrame	OrigNumFrames
150.000000	150.000000	4	104	mm	150.000000	93	150
Frame#	Time	LFHD			LBHD			RFHD			RBHD			C7			T10			CLAV			STRN			RBAK			LSHO			LUPA			LELB			LFRA			LWRB			LWRA			LFIN			RSHO			RUPA			RELB			RFRA			RWRB			RWRA			RFIN			SACR			LASI			RASI			LT1			LT2			LT3			LS1			LS2			LS3			LHEE			LTOE			RT1			RT2			RT3			RS1			RS2			RS3			RHEE			RTOE			LKNE			LKNM			LANK			LANM			RKNM			RKNE			RANM			RANK			SACO			SACA			SACL			SACP			LKJC			RKJC			LAJC			RAJC			LMMA			RMMA			LTHI			RTHI			LTIB			RTIB			funktRKJC			funktLKJC			funktRHIP			funktLHIP			LHJC			RHJC			LPelvisAngles			RPelvisAngles			LFootProgressAngles			RFootProgressAngles			LHipAngles			RHipAngles			LKneeAngles			RKneeAngles			LAnkleAngles			RAnkleAngles			LFFootAngles			RFFootAngles			LAbsAnkleAngle			RAbsAnkleAngle			RNeckAngles			LNeckAngles			RSpineAngles			LSpineAngles			LShoulderAngles			LElbowAngles			LWristAngles			RShoulderAngles			RElbowAngles			RWristAngles			RThoraxAngles			LThoraxAngles			RHeadAngles			LHeadAngles			LNormalisedGRF			RNormalisedGRF			LGroundReactionForce			RGroundReactionForce			LGRF			RGRF			
		X1	Y1	Z1	X2	Y2	Z2	X3	Y3	Z3	X4	Y4	Z4	X5	Y5	Z5	X6	Y6	Z6	X7	Y7	Z7	X8	Y8	Z8	X9	Y9	Z9	X10	Y10	Z10	X11	Y11	Z11	X12	Y12	Z12	X13	Y13	Z13	X14	Y14	Z14	X15	Y15	Z15	X16	Y16	Z16	X17	Y17	Z17	X18	Y18	Z18	X19	Y19	Z19	X20	Y20	Z20	X21	Y21	Z21	X22	Y22	Z22	X23	Y23	Z23	X24	Y24	Z24	X25	Y25	Z25	X26	Y26	Z26	X27	Y27	Z27	X28	Y28	Z28	X29	Y29	Z29	X30	Y30	Z30	X31	Y31	Z31	X32	Y32	Z32	X33	Y33	Z33	X34	Y34	Z34	X35	Y35	Z35	X36	Y36	Z36	X37	Y37	Z37	X38	Y38	Z38	X39	Y39	Z39	X40	Y40	Z40	X41	Y41	Z41	X42	Y42	Z42	X43	Y43	Z43	X44	Y44	Z44	X45	Y45	Z45	X46	Y46	Z46	X47	Y47	Z47	X48	Y48	Z48	X49	Y49	Z49	X50	Y50	Z50	X51	Y51	Z51	X52	Y52	Z52	X53	Y53	Z53	X54	Y54	Z54	X55	Y55	Z55	X56	Y56	Z56	X57	Y57	Z57	X58	Y58	Z58	X59	Y59	Z59	X60	Y60	Z60	X61	Y61	Z61	X62	Y62	Z62	X63	Y63	Z63	X64	Y64	Z64	X65	Y65	Z65	X66	Y66	Z66	X67	Y67	Z67	X68	Y68	Z68	X69	Y69	Z69	X70	Y70	Z70	X71	Y71	Z71	X72	Y72	Z72	X73	Y73	Z73	X74	Y74	Z74	X75	Y75	Z75	X76	Y76	Z76	X77	Y77	Z77	X78	Y78	Z78	X79	Y79	Z79	X80	Y80	Z80	X81	Y81	Z81	X82	Y82	Z82	X83	Y83	Z83	X84	Y84	Z84	X85	Y85	Z85	X86	Y86	Z86	X87	Y87	Z87	X88	Y88	Z88	X89	Y89	Z89	X90	Y90	Z90	X91	Y91	Z91	X92	Y92	Z92	X93	Y93	Z93	X94	Y94	Z94	X95	Y95	Z95	X96	Y96	Z96	X97	Y97	Z97	X98	Y98	Z98	X99	Y99	Z99	X100	Y100	Z100	X101	Y101	Z101	X102	Y102	Z102	X103	Y103	Z103	X104	Y104	Z104	

94	0.62	388.3602905273436	1436.607421875	-1140.375244140625	365.7223205566405	1419.204223632812	-1001.421203613281	504.458526611328	1438.13916015625	-1145.422485351562	514.351379394531	1420.553955078125	-992.4691162109375	446.7726745605468	1273.809448242188	-967.029541015625	446.3129882812499	1095.16552734375	-914.7637939453125	431.2142333984374	1209.985717773438	-1097.116088867188	426.560089111328	1156.532958984375	-1128.684814453125	544.8610839843748	1176.609497070312	-934.7218627929688	315.2580261230468	1261.866333007812	-1041.1455078125	220.1150512695311	1046.228393554688	-977.9098510742188	191.1139678955077	972.998291015625	-967.5962524414062	146.8024444580077	890.57080078125	-982.2327880859375	90.44801330566396	770.4743041992188	-1025.802612304688	126.2713470458983	775.4135131835938	-1082.980834960938	79.74798583984364	718.0772705078125	-1112.48388671875	563.356506347656	1248.936889648438	-1063.237915039062	652.8294677734373	1075.302978515625	-1053.281372070312	706.9308471679685	956.87109375	-1030.8408203125	758.6896972656249	827.9364624023438	-1091.941284179688	778.4032592773436	747.8611450195312	-1104.043579101562	725.6857910156249	743.9769287109375	-1145.70849609375	770.5313110351561	697.08349609375	-1187.758911132812	428.8537597656249	874.36181640625	-913.9768676757812	278.903350830078	870.6589965820312	-1071.462646484375	522.4471435546874	876.58056640625	-1120.952392578125	242.1058197021484	586.3565673828125	-1127.554443359375	229.3752288818359	474.5832214355469	-1078.963623046875	275.0653686523436	531.962646484375	-1202.611694335938	282.0863037109374	217.2454223632813	-1032.577392578125	342.5814819335937	148.8287658691407	-950.0906372070312	253.7049865722656	131.696029663086	-1061.256103515625	367.8533020019531	41.85627746582033	-973.7435913085938	261.7778930664062	41.21382141113283	-1082.808349609375	593.2622070312499	606.194091796875	-1131.641845703125	586.2824707031249	507.0458374023438	-1056.419311523438	583.9852294921874	533.9594116210938	-1197.744384765625	587.6904296874999	266.0720214843751	-1090.186401367188	562.5740356445311	216.9159393310547	-982.5173950195312	582.8267822265624	175.6650085449219	-1117.51708984375	500.1413574218749	44.96820449829104	-981.8404541015625	570.5642700195311	41.77045822143558	-1123.30224609375	266.5396423339843	432.6981811523438	-1147.1728515625	365.9076538085937	421.6742858886719	-1164.084594726562	304.5821838378906	49.50354385375979	-993.9723510742188	356.5786743164062	47.62572860717776	-1044.751098632812	467.1247253417968	423.6760864257813	-1166.858520507812	569.7440795898436	439.1371459960938	-1166.27880859375	490.6980590820312	52.77746963500979	-1062.789916992188	552.2913208007811	47.58919525146488	-1019.109252929688	423.7649841308593	874.2171630859375	-982.5096435546875	422.6104736328124	874.187255859375	-988.1945190429688	418.0817565917968	874.0789794921875	-981.354736328125	422.351348876953	932.2100219726562	-982.5274047851562	316.2236633300781	427.1862182617188	-1155.628662109375	518.4343872070311	431.4066162109376	-1166.568603515625	330.5804443359374	48.56463623046877	-1019.361755371094	521.4946899414061	50.18333435058597	-1040.949584960938	356.5786743164062	47.62572860717776	-1044.751098632812	490.6980590820312	52.77746963500979	-1062.789916992188	224.408706665039	611.2550048828125	-1082.43212890625	603.2820434570311	623.419921875	-1115.784790039062	241.5060424804687	243.8529510498047	-1008.717529296875	614.0526123046874	243.3945922851563	-1040.4443359375	0	0	0	0	0	0	0	0	0	0	0	0	354.3001708984374	782.2911987304688	-1043.140014648438	468.0901794433593	784.2349853515625	-1065.695678710938	-1.396348237991332	-11.48276424407959	0.01734426431357869	1.396348237991332	11.48276424407959	0.01734426431357852	12.84864616394043	-44.1834602355957	0.4449696838855736	9.099847793579103	-26.4745979309082	1.282036662101745	-3.578030347824096	4.124202728271484	18.67207145690918	-9.478861808776855	-9.538670539855957	14.36654472351074	2.215711116790776	-33.3651123046875	38.08809661865234	7.169072628021244	-30.26213264465332	34.21323776245117	1.307674765586854	-2.707528829574585	15.22360420227051	-0.4269491732120508	5.181809425354004	14.99306774139404	3.963269277785239e-15	3.180554718589511e-15	-1.987846699118446e-16	-5.963540229704227e-16	-4.770832183763384e-15	7.951386796473776e-16	9.259241288511471e-16	0	15.12148857116699	9.107997567653103e-16	0	14.87448883056641	-1.447426915168763	8.558894157409668	-11.97602081298828	1.447426915168762	-8.558894157409668	-11.97602081298828	3.163169145584106	5.627996921539307	4.779675006866455	-3.163169145584106	-5.627996921539307	4.779675006866455	18.87077903747559	-11.34167957305908	-9.299743652343752	5.543975790321784e-15	-1.537798209085006e-12	38.59759521484375	-12.66075038909913	129.2738647460938	16.42568778991699	25.19035148620605	1.43655025959015	-8.022026062011721	-1.730587332506293e-15	1.876527362318359e-12	36.66536712646484	-0.3237355351448128	132.629638671875	19.21065711975098	-1.257217407226563	5.980643272399902	5.095823287963867	1.257217407226563	-5.980643272399902	5.095823287963867	0.7193388342857366	-2.48248291015625	6.803753852844238	-0.7193388342857358	2.48248291015625	6.803753852844238	0	0	0	0	0	0	0	0	0	0	0	0	0	0	0	0	0	0	
95	0.6266666666666667	388.4873657226561	1436.5498046875	-1140.503540039062	365.8193054199217	1419.22314453125	-1001.553100585938	504.5980224609373	1438.059692382812	-1145.548095703125	514.447082519531	1420.55419921875	-992.5643310546875	446.8058776855468	1273.798461914062	-967.0623779296875	446.2235412597655	1095.158569335938	-914.775146484375	431.2961120605468	1209.963989257812	-1097.148071289062	426.6511840820311	1156.507446289062	-1128.700439453125	544.816711425781	1176.553100585938	-934.6888427734375	315.313262939453	1261.909545898438	-1041.240600585938	220.1195373535155	1046.303344726562	-977.9903564453125	191.0941009521483	973.0860595703125	-967.6897583007812	146.7965393066405	890.6315307617188	-982.3552856445312	90.4644775390624	770.54052734375	-1025.970336914062	126.3944396972655	775.4694213867188	-1083.128295898438	79.86485290527332	718.1361083984375	-1112.65478515625	563.4447021484373	1248.828247070312	-1063.141967773438	652.8300170898435	1075.163818359375	-1053.0771484375	706.8480834960935	956.7117919921875	-1030.6044921875	758.6278686523436	827.7575073242188	-1091.686401367188	778.3508300781249	747.6589965820312	-1103.724975585938	725.6145629882811	743.800048828125	-1145.447265625	770.5202636718749	696.9146118164062	-1187.496704101562	428.7810668945311	874.345947265625	-913.9761962890625	278.791290283203	870.6502075195312	-1071.431640625	522.3294677734374	876.5833740234375	-1120.978881835938	242.0997924804687	586.3358154296875	-1127.599365234375	229.3610076904296	474.5665588378906	-1079.025756835938	275.0954589843749	531.947021484375	-1202.643676757812	282.0759277343749	217.2330169677735	-1032.615356445312	342.5112915039062	148.8283996582032	-950.088134765625	253.7163543701171	131.686767578125	-1061.305908203125	367.8445739746093	41.85670471191408	-973.7348022460938	261.7893981933593	41.20886993408205	-1082.817138671875	593.1538696289061	606.171142578125	-1131.6630859375	586.1322021484374	507.0165405273438	-1056.451782226562	583.9000854492186	533.9402465820312	-1197.770874023438	587.6221923828124	266.0842590332032	-1090.282958984375	562.5542602539061	216.9221801757813	-982.5614624023438	582.7768554687499	175.6649627685547	-1117.552001953125	500.1393737792968	44.96951293945315	-981.8407592773438	570.5512695312499	41.77654266357425	-1123.310302734375	266.5573425292968	432.6825256347656	-1147.227905273438	365.9654846191406	421.6844787597656	-1164.067138671875	304.5762023925781	49.50882720947268	-993.9754638671875	356.5878295898437	47.61733627319338	-1044.749755859375	467.0258178710937	423.6481933593751	-1166.898315429688	569.6458129882811	439.1245422363282	-1166.30859375	490.6819763183593	52.77481842041018	-1062.7900390625	552.2820434570311	47.5973052978516	-1019.110473632812	423.6764831542968	874.206298828125	-982.5126953125	422.5206604003905	874.1768188476562	-988.1973266601562	417.9935607910155	874.06787109375	-981.3565063476562	422.2612304687499	932.1991577148438	-982.5255737304688	316.2614135742187	427.1835021972656	-1155.6474609375	518.3358154296874	431.3863830566407	-1166.603393554688	330.5820312499999	48.56308364868166	-1019.362548828125	521.4819946289061	50.18606185913089	-1040.950317382812	356.5878295898437	47.61733627319338	-1044.749755859375	490.6819763183593	52.77481842041018	-1062.7900390625	224.3679656982421	611.2322998046875	-1082.519897460938	603.1865844726561	623.40869140625	-1115.806396484375	241.5131835937499	243.8572387695313	-1008.739501953125	613.9991455078124	243.4107360839844	-1040.4716796875	0	0	0	0	0	0	0	0	0	0	0	0	354.2005310058593	782.28271484375	-1043.133911132812	467.9852294921874	784.2318115234375	-1065.7158203125	-1.398164987564086	-11.49610805511475	0.012690487317741	1.398164987564086	11.49610805511475	0.01269048731774083	12.84965038299561	-44.17552947998047	0.4481685757637016	9.113752365112306	-26.4713077545166	1.280517935752868	-3.555054426193236	4.174602031707764	18.66839981079102	-9.480343818664551	-9.555164337158203	14.36142063140869	2.216290712356572	-33.39995574951172	38.08928680419922	7.155328273773197	-30.25772857666016	34.22012710571289	1.307532906532289	-2.707842588424683	15.22108554840088	-0.4266301095485681	5.180496692657471	14.99417209625244	2.733289294005922e-16	-3.18055471858951e-15	-2.584200748558647e-15	3.801756611886316e-15	2.327904532941931e-31	-1.987846699118446e-16	9.259009457542965e-16	0	15.12110996246338	9.108841385661893e-16	0	14.87586688995361	-1.465300202369691	8.535552024841309	-11.95584964752197	1.46530020236969	-8.535552024841309	-11.95584964752197	3.191034317016602	5.679616928100586	4.792566299438477	-3.191034317016601	-5.679616928100586	4.792566299438477	18.85062408447266	-11.31438636779785	-9.31115245819092	6.340184438194056e-15	-2.083263303618438e-13	38.61506652832031	-12.64633941650391	129.2977142333984	16.42386817932129	25.18755722045898	1.41121554374695	-8.01919746398926	2.244764726437832e-15	-3.862783790747892e-12	36.6597900390625	-0.3075917661190102	132.6612091064453	19.24532890319824	-1.285078287124634	5.945031642913818	5.105095863342285	1.285078287124634	-5.945031642913818	5.105095863342285	0.7111948728561407	-2.496783018112183	6.773073673248291	-0.7111948728561398	2.496783018112183	6.773073673248291	0	0	0	0	0	0	0	0	0	0	0	0	0	0	0	0	0	0	
96	0.6333333333333334	388.6152038574217	1436.495971679688	-1140.627807617188	365.9138183593748	1419.255126953125	-1001.684631347656	504.738800048828	1437.983276367188	-1145.667358398438	514.5395507812498	1420.561889648438	-992.64892578125	446.8343505859374	1273.788818359375	-967.1043701171875	446.126495361328	1095.15185546875	-914.7901000976562	431.3710632324218	1209.953002929688	-1097.179809570312	426.7320861816405	1156.494873046875	-1128.715087890625	544.7587280273435	1176.50048828125	-934.6513671875	315.3631591796874	1261.961181640625	-1041.337768554688	220.1166839599608	1046.386840820312	-978.073974609375	191.0718536376952	973.1812133789062	-967.779296875	146.7839965820311	890.7017822265625	-982.465576171875	90.49417877197256	770.611083984375	-1026.14599609375	126.4939880371093	775.541259765625	-1083.268188476562	79.99462890624989	718.1958618164062	-1112.83154296875	563.5202026367185	1248.737060546875	-1063.052734375	652.8182983398435	1075.033447265625	-1052.869262695312	706.7493896484373	956.5588989257812	-1030.35107421875	758.5497436523436	827.57958984375	-1091.403564453125	778.2804565429686	747.4544067382812	-1103.378540039062	725.5242919921874	743.6234130859375	-1145.168090820312	770.4846801757811	696.7391357421875	-1187.20703125	428.7174682617186	874.3365478515625	-913.9927368164062	278.691680908203	870.6500854492188	-1071.403686523438	522.2199707031249	876.5850219726562	-1121.010620117188	242.1010284423827	586.3190307617188	-1127.63427734375	229.3608093261718	474.5546875	-1079.072631835938	275.1318969726561	531.9323120117188	-1202.664306640625	282.0649108886718	217.2212219238282	-1032.649047851562	342.4326171874999	148.8235473632813	-950.081787109375	253.7302703857421	131.679183959961	-1061.360107421875	367.8338623046874	41.85557556152346	-973.724365234375	261.8067016601562	41.19774246215822	-1082.830322265625	593.0448608398436	606.1436767578125	-1131.698486328125	585.9812011718749	506.9863281250001	-1056.495971679688	583.8081054687499	533.9182739257812	-1197.813842773438	587.5515136718749	266.0942382812501	-1090.401245117188	562.5505981445311	216.9248962402344	-982.6138305664062	582.7219238281249	175.6618804931641	-1117.591552734375	500.1362304687499	44.97148895263675	-981.84033203125	570.5372314453124	41.78210067749027	-1123.320068359375	266.5474243164062	432.6953125	-1147.322998046875	366.0331726074218	421.6935729980469	-1164.031372070312	304.5638427734374	49.52014541625979	-993.9751586914062	356.5968933105468	47.60817337036135	-1044.747192382812	466.9217224121093	423.6141967773438	-1166.938598632812	569.5472412109374	439.1072692871094	-1166.348999023438	490.6666870117187	52.77258300781253	-1062.790649414062	552.2725219726561	47.60639572143558	-1019.113891601562	423.5998229980468	874.2006225585938	-982.5202026367188	422.442657470703	874.1715087890625	-988.20458984375	417.9171447753905	874.0621337890625	-981.3626708984375	422.1846313476561	932.1934814453125	-982.5293579101562	316.2902832031249	427.1944580078125	-1155.67724609375	518.2344970703124	431.3607177734376	-1166.643798828125	330.5803527832031	48.56415939331057	-1019.361145019531	521.4696044921874	50.18948745727542	-1040.952270507812	356.5968933105468	47.60817337036135	-1044.747192382812	490.6666870117187	52.77258300781253	-1062.790649414062	224.3183593749999	611.247802734375	-1082.684692382812	603.0954589843749	623.3956298828125	-1115.84326171875	241.5100860595702	243.8700561523438	-1008.763793945312	613.9441528320311	243.42578125	-1040.50439453125	0	0	0	0	0	0	0	0	0	0	0	0	354.1086120605468	782.28076171875	-1043.12939453125	467.8877868652343	784.230712890625	-1065.739013671875	-1.397934079170226	-11.5101261138916	0.009217572398483838	1.397934079170226	11.5101261138916	0.009217572398483668	12.84368133544922	-44.16090774536133	0.4587967097759239	9.127816200256349	-26.46718597412109	1.279869675636291	-3.531932115554809	4.264091014862061	18.6676139831543	-9.482487678527832	-9.566216468811035	14.35742855072021	2.243311643600468	-33.46302795410156	38.09266662597656	7.142774105072025	-30.25815200805664	34.22726440429688	1.305380821228028	-2.701568841934204	15.21607875823975	-0.4263415634632104	5.179309844970703	14.99517345428467	5.603242801249233e-15	-3.18055471858951e-15	-1.292100374279324e-15	6.932615272185706e-15	3.180554718589511e-15	-3.975693398236892e-16	9.25969210339229e-16	0	15.12222480773926	9.109837616473652e-16	0	14.8774938583374	-1.483359575271608	8.514782905578613	-11.93467998504639	1.483359575271606	-8.514782905578613	-11.93467998504639	3.218490123748779	5.730767250061035	4.805860996246338	-3.218490123748778	-5.730767250061035	4.805860996246338	18.82859039306641	-11.28713607788086	-9.321450233459474	-1.972319344961426e-17	4.548193419107172e-13	38.63469696044922	-12.64775848388672	129.2934722900391	16.42211151123047	25.18363189697266	1.382654786109926	-8.019303321838381	2.24451549354747e-15	9.03277507045136e-13	36.65571975708008	-0.2973707318306039	132.6868133544922	19.27995491027832	-1.314448237419129	5.910729885101318	5.115932941436768	1.314448237419129	-5.910729885101318	5.115932941436768	0.7019612193107611	-2.512596607208252	6.739768981933594	-0.7019612193107602	2.512596607208252	6.739768981933594	0	0	0	0	0	0	0	0	0	0	0	0	0	0	0	0	0	0	
97	0.64	388.7438659667967	1436.445678710938	-1140.747802734375	366.005157470703	1419.298583984375	-1001.814086914062	504.8798217773436	1437.911376953125	-1145.778076171875	514.6264038085935	1420.577026367188	-992.722412109375	446.856964111328	1273.78173828125	-967.15087890625	446.0200195312499	1095.1455078125	-914.806884765625	431.4413146972655	1209.95166015625	-1097.20849609375	426.8068847656249	1156.490600585938	-1128.730590820312	544.6840820312498	1176.452880859375	-934.598388671875	315.4078674316405	1262.020751953125	-1041.437133789062	220.1047210693358	1046.478271484375	-978.1614990234375	191.0375366210936	973.2785034179688	-967.8594970703125	146.7637176513671	890.7842407226562	-982.5733032226562	90.54586029052724	770.68212890625	-1026.333129882812	126.5658721923827	775.6232299804688	-1083.394287109375	80.13967895507801	718.254638671875	-1113.012084960938	563.5864257812498	1248.665161132812	-1062.987060546875	652.7950439453123	1074.913208007812	-1052.663208007812	706.6376342773435	956.4136352539062	-1030.082885742188	758.4558715820311	827.40185546875	-1091.08740234375	778.1627197265624	747.2531127929688	-1103.022705078125	725.4283447265624	743.4530639648438	-1144.88232421875	770.4228515624999	696.5482788085938	-1186.877685546875	428.6629943847655	874.3350219726562	-914.0245361328125	278.6068725585936	870.6594848632812	-1071.38330078125	522.1227416992186	876.5824584960938	-1121.045166015625	242.108413696289	586.3058471679688	-1127.65771484375	229.3736877441405	474.5472106933594	-1079.101928710938	275.1691894531249	531.9182739257812	-1202.674438476562	282.0555114746093	217.2115936279297	-1032.677001953125	342.3585815429687	148.8153991699219	-950.073486328125	253.7461395263671	131.6739349365235	-1061.412841796875	367.8240051269531	41.85321044921877	-973.7150268554688	261.8295898437499	41.18170547485353	-1082.848388671875	592.9372558593749	606.111572265625	-1131.749145507812	585.8361206054686	506.9554138183594	-1056.556518554688	583.7093505859374	533.89208984375	-1197.87744140625	587.4809570312499	266.1005249023438	-1090.533569335938	562.5572509765624	216.9258575439453	-982.6705322265625	582.6628417968749	175.6560821533203	-1117.636108398438	500.1319274902343	44.97391891479495	-981.8392333984375	570.5219726562499	41.78715896606449	-1123.330444335938	266.5210876464843	432.726806640625	-1147.435424804688	366.1049194335937	421.7006530761719	-1163.991333007812	304.5469360351562	49.53617095947268	-993.9708251953125	356.6055908203124	47.59793472290041	-1044.744140625	466.8109741210937	423.5779724121094	-1166.9775390625	569.4484252929686	439.0836791992188	-1166.406982421875	490.6528930664062	52.77007675170901	-1062.792602539062	552.2633666992186	47.61617279052738	-1019.119689941406	423.5346679687499	874.2007446289062	-982.5325317382812	422.3762207031249	874.1717529296875	-988.2166137695312	417.8522644042968	874.0625610351562	-981.3737182617188	422.1227416992186	932.1936645507812	-982.54052734375	316.3129882812499	427.2137145996094	-1155.71337890625	518.1296997070311	431.3308410644532	-1166.692260742188	330.5762634277343	48.56705474853518	-1019.357421875	521.4581298828124	50.19312286376956	-1040.956176757812	356.6055908203124	47.59793472290041	-1044.744140625	490.6528930664062	52.77007675170901	-1062.792602539062	224.2660369873046	611.2849731445312	-1082.883178710938	603.0083007812499	623.3821411132812	-1115.903198242188	241.5019378662109	243.8890075683594	-1008.787414550781	613.8877563476561	243.4408721923828	-1040.54296875	0	0	0	0	0	0	0	0	0	0	0	0	354.0248413085936	782.28564453125	-1043.127685546875	467.7989807128905	784.22998046875	-1065.763061523438	-1.394916176795959	-11.52314949035645	0.007852620445191945	1.394916176795959	11.52314949035645	0.007852620445191775	12.83209705352784	-44.13982391357422	0.4750159084796898	9.142447471618654	-26.4622745513916	1.279881119728088	-3.508146047592162	4.368269443511963	18.66926574707031	-9.485675811767578	-9.566013336181641	14.35651969909668	2.28253293037415	-33.53853225708008	38.0974006652832	7.133168220520023	-30.26721572875977	34.23528671264648	1.300961732864381	-2.687489748001099	15.20936965942383	-0.4261871874332422	5.178603172302246	14.99635314941406	6.535045958831797e-15	1.590277359294756e-15	2.484808473159724e-16	8.299260157416683e-15	4.770832183763385e-15	-1.987846778527783e-15	9.260716948101927e-16	0	15.12389850616455	9.111267143453248e-16	0	14.87982845306396	-1.501998782157899	8.495393753051758	-11.91111946105957	1.501998782157898	-8.495393753051758	-11.91111946105957	3.244062900543213	5.781407356262207	4.816903591156006	-3.244062900543212	-5.781407356262207	4.816903591156006	18.8066234588623	-11.25347423553467	-9.33445453643799	1.572049616125082e-15	1.075027436861498e-12	38.65911865234375	-12.65991210937501	129.2519378662109	16.42150497436523	25.17762756347656	1.354720473289491	-8.025682449340822	3.039868135075978e-15	3.018346423494522e-12	36.65921401977539	-0.2948096394538949	132.6880950927734	19.29077529907227	-1.345019459724426	5.875994205474854	5.126392364501953	1.345019459724427	-5.875994205474854	5.126392364501953	0.6923723816871649	-2.530333757400513	6.704352855682373	-0.692372381687164	2.530333757400513	6.704352855682373	0	0	0	0	0	0	0	0	0	0	0	0	0	0	0	0	0	0	
